<?xml version="1.0" encoding="utf-8"?>
<!-- Generator: Adobe Illustrator 19.1.0, SVG Export Plug-In . SVG Version: 6.00 Build 0)  -->
<svg version="1.1" id="C.A.G_logotyp" xmlns="http://www.w3.org/2000/svg" xmlns:xlink="http://www.w3.org/1999/xlink" x="0px"
	 y="0px" viewBox="0 0 569.3 213.1" style="enable-background:new 0 0 569.3 213.1;" xml:space="preserve">
<style type="text/css">
	.st0{fill:#FFFFFF;}
</style>
<rect width="569.3" height="213.1"/>
<path class="st0" d="M258.2,115.2c-3.2,0.6-5,5.3-0.8,7.6c13.1,7.2,42.7,1.3,56.6-2.2c13.7-3.4,16.2-3.3,38.4-17.1
	c-17.6,4.1-25.9,5.2-33.5,6.5C286.9,115.2,261.5,114.5,258.2,115.2z"/>
<path class="st0" d="M328.5,121c6.5-15.1,23.8-46,25.5-63.8c1.6-17.2-18.6-13.4-32.5-6.8c-43.8,20.7-78.3,45.2-127,67
	c-40,18-89.4,37.1-117.3,34.2c-7-0.8-15.4-8.5-5.9-24.5c12.3-20.1,64.6-59.3,100.2-68.7c13.6-3.6,18.5-3.3,21.6-7
	c2.6-3.1,0-10.2-6.7-10.5c-8.1-0.3-17.5,3.4-20.4,4.4c-23.7,8.7-53.5,27.8-53.5,27.8S43.4,117,51.1,148.5
	c7.7,22.9,54.9,7.9,67.3,5.2c27.4-7.8,70.6-25.3,105.3-42.7c8.6-4.3,31.7-16.7,35.8-18.9c24.3-13.1,66.9-37.3,78.1-36.9
	s-16.6,50.4-19.5,56.6c-7.3,15.7-14.3,31.2-12.8,37.4c1.1,4.4,8.1,7.4,11.5,3.2C320.1,148.4,322.4,135.3,328.5,121z"/>
<path class="st0" d="M485,45.2c-15.1,6.9-69.2,31.4-87.2,68.9c-3.2,6.6-5.8,19.7,5.8,25.3c23.4,11.4,51-10.1,65-8.5
	c1.9,0.2,3.2,2.5,2,6.8c-2.5,9.4-12.1,26-18.5,34.4c-8.6,11.3,7.2,16.7,12.3,8.9c4.3-6.6,32.9-51,19.1-59.7
	c-9.6-6.1-39,5.7-54.8,10.1c-16.3,4.3-21.8-2.8-17-14.5c10.5-26,55.4-47.1,68.2-52.5c6.9-2.9,19.6-6.5,25.2-11.2
	c5.3-4.4,1.3-10.3-3.9-11.3C497.2,41,491.5,42.3,485,45.2z"/>
<path class="st0" d="M203.6,146.1c0,4.5-3.6,8.1-8.1,8.1c-4.5,0-8.1-3.6-8.1-8.1c0-4.5,3.6-8.1,8.1-8.1
	C199.9,138,203.6,141.7,203.6,146.1"/>
<path class="st0" d="M370.5,146.2c0,4.5-3.6,8.1-8.1,8.1c-4.5,0-8.1-3.6-8.1-8.1c0-4.5,3.6-8.1,8.1-8.1
	C366.8,138.1,370.5,141.7,370.5,146.2"/>
</svg>
